<?xml version="1.0" encoding="utf-8"?> <!-- Generator: Adobe Illustrator 16.0.0, SVG Export Plug-In . SVG Version: 6.00 Build 0) --> <!DOCTYPE svg PUBLIC "-//W3C//DTD SVG 1.1//EN" "http://www.w3.org/Graphics/SVG/1.1/DTD/svg11.dtd"> <svg version="1.1" id="Layer_1" xmlns="http://www.w3.org/2000/svg" xmlns:xlink="http://www.w3.org/1999/xlink" x="0px" y="0px" width="133.515px" height="147.115px" viewBox="0 0 133.515 147.115" enable-background="new 0 0 133.515 147.115" xml:space="preserve"> <g> <polygon fill="#FFFFFF" points="99.674,63.918 95.334,63.918 95.334,59.818 108.07,59.818 108.07,63.918 103.752,63.918 103.752,86.857 99.674,86.857 "/> <path fill="#FFFFFF" d="M35.609,80.125c0.029,1.883-0.459,3.494-1.467,4.832c-0.664,0.908-1.598,1.549-2.805,1.922 c-0.65,0.203-1.404,0.303-2.266,0.303c-1.598,0-2.922-0.396-3.971-1.186c-0.879-0.648-1.572-1.528-2.082-2.645 c-0.512-1.115-0.811-2.393-0.898-3.831l3.885-0.28c0.176,1.577,0.59,2.718,1.254,3.427c0.488,0.534,1.049,0.788,1.682,0.758 c0.893-0.027,1.604-0.466,2.139-1.316c0.27-0.418,0.406-1.017,0.406-1.792c0-1.123-0.508-2.24-1.531-3.348 c-0.805-0.765-2.014-1.906-3.625-3.434c-1.352-1.311-2.309-2.485-2.867-3.521c-0.604-1.166-0.908-2.433-0.908-3.802 c0-2.46,0.828-4.325,2.482-5.592c1.021-0.763,2.287-1.143,3.797-1.143c1.451,0,2.695,0.322,3.732,0.969 c0.805,0.504,1.459,1.208,1.953,2.114c0.498,0.907,0.795,1.95,0.896,3.129l-3.906,0.711c-0.117-1.106-0.43-1.97-0.951-2.588 c-0.373-0.446-0.912-0.67-1.617-0.67c-0.746,0-1.316,0.332-1.705,0.994c-0.314,0.534-0.475,1.195-0.475,1.986 c0,1.235,0.533,2.495,1.598,3.777c0.402,0.487,1.006,1.065,1.812,1.726c0.949,0.791,1.574,1.344,1.877,1.661 c1.008,1.006,1.783,2,2.33,2.978c0.26,0.46,0.467,0.884,0.627,1.274C35.392,78.5,35.595,79.363,35.609,80.125"/> <polygon fill="#FFFFFF" points="43.076,86.857 38.998,86.857 38.998,59.797 44.847,59.797 48.649,79.235 52.295,59.797 57.92,59.797 57.92,86.857 53.843,86.857 53.843,69.854 50.303,86.857 47.022,86.857 43.076,69.897 "/> <path fill="#FFFFFF" d="M66.566,80.642l-0.99,6.215h-4.248l4.597-27.039h5.607l4.535,27.039h-4.289l-0.953-6.215H66.566z M68.709,66.013l-1.51,10.659h3.02L68.709,66.013z"/> <path fill="#FFFFFF" d="M85.93,59.818c2.27,0,3.941,0.627,5.004,1.881c0.938,1.089,1.402,2.616,1.402,4.572v3.929 c0,1.912-0.725,3.531-2.178,4.854l3.021,11.804h-4.41l-2.475-10.185H85.93h-2.352v10.185h-4.08V59.818H85.93z M88.367,66.335 c0-1.567-0.777-2.353-2.33-2.353h-2.459v8.654h2.459c0.648,0,1.197-0.231,1.652-0.69c0.451-0.46,0.678-1.015,0.678-1.662V66.335z" /> <path fill="#66D5F0" d="M38.224,107.699c-1.242,0-2.293-0.434-3.164-1.302c-0.867-0.866-1.301-1.914-1.301-3.146V93.072 c0-1.24,0.436-2.294,1.309-3.162c0.873-0.869,1.924-1.3,3.156-1.3c1.24,0,2.291,0.437,3.154,1.308 c0.863,0.875,1.295,1.924,1.295,3.154v2.13h-2.918v-2.189c0-0.445-0.158-0.827-0.477-1.145c-0.316-0.319-0.699-0.477-1.145-0.477 s-0.828,0.157-1.137,0.477c-0.314,0.317-0.471,0.699-0.471,1.145v10.208c0,0.447,0.156,0.825,0.471,1.141 c0.309,0.309,0.691,0.467,1.137,0.467s0.828-0.158,1.145-0.467c0.318-0.315,0.477-0.693,0.477-1.141v-2.574h2.918v2.604 c0,1.241-0.438,2.29-1.311,3.154C40.49,107.267,39.445,107.699,38.224,107.699"/> <rect x="44.978" y="88.818" fill="#66D5F0" width="2.812" height="18.644"/> <polygon fill="#66D5F0" points="53.043,91.644 50.051,91.644 50.051,88.818 58.832,88.818 58.832,91.644 55.856,91.644 55.856,107.461 53.043,107.461 "/> <rect x="61.092" y="88.818" fill="#66D5F0" width="2.812" height="18.644"/> <polygon fill="#66D5F0" points="74.455,88.816 74.455,91.644 69.275,104.665 74.455,104.665 74.455,107.461 66.242,107.461 66.242,104.648 71.434,91.628 66.242,91.644 66.242,88.816 "/> <polygon fill="#66D5F0" points="76.791,107.461 76.791,88.8 84.795,88.8 84.795,91.628 79.604,91.628 79.604,96.716 83.396,96.716 83.396,99.544 79.604,99.544 79.604,104.633 84.795,104.633 84.795,107.461 "/> <polygon fill="#66D5F0" points="89.889,88.8 93.619,101.34 93.619,88.8 96.43,88.8 96.43,107.461 93.412,107.461 89.545,95.511 89.545,107.461 86.73,107.461 86.73,88.8 "/> <path fill="#FFFFFF" d="M117.096,36.602l-10.072,7.881c13.275,15.253,17.498,37.3,8.951,57.111 c-11.871,27.512-43.809,40.191-71.319,28.317C17.148,118.037,4.465,86.104,16.338,58.592c7.118-16.489,21.442-27.586,37.689-31.324 l4.607,15.352c0.426,1.412,1.462,1.579,2.305,0.371l19.107-27.329c0.842-1.208,0.414-2.64-0.955-3.181L48.094,0.182 C46.725-0.36,45.953,0.35,46.375,1.76l4.174,13.899C31.093,20.54,14.044,34.061,5.478,53.904 c-14.603,33.839,0.996,73.127,34.838,87.731c33.84,14.606,73.125-0.994,87.731-34.831 C138.553,82.461,133.387,55.369,117.096,36.602z"/> </g> </svg>
